<svg width="17" height="17" viewBox="0 0 17 17" fill="none" xmlns="http://www.w3.org/2000/svg">
<g clip-path="url(#clip0_892_10652)">
<path d="M15.5807 7.84978V8.50145C15.5799 10.0289 15.0853 11.5152 14.1707 12.7386C13.2561 13.962 11.9706 14.857 10.5058 15.29C9.04099 15.7231 7.47545 15.6711 6.04265 15.1418C4.60984 14.6124 3.38653 13.6341 2.55516 12.3527C1.72379 11.0713 1.32891 9.5555 1.42942 8.03134C1.52992 6.50718 2.12042 5.05635 3.11284 3.89521C4.10527 2.73407 5.44645 1.92485 6.93636 1.58822C8.42627 1.25159 9.98509 1.40561 11.3803 2.02728M15.5807 2.83478L8.4974 9.9252L6.3724 7.8002" stroke="#2D334A" stroke-width="2" stroke-linecap="round" stroke-linejoin="round"/>
</g>
<defs>
<clipPath id="clip0_892_10652">
<rect width="17" height="17" fill="white"/>
</clipPath>
</defs>
</svg>
