<svg width="20" height="20" viewBox="0 0 20 20" fill="none" xmlns="http://www.w3.org/2000/svg">
<g clip-path="url(#clip0_892_11455)">
<path d="M18.3307 9.23159V9.99826C18.3297 11.7953 17.7478 13.5438 16.6718 14.9831C15.5959 16.4224 14.0835 17.4753 12.3602 17.9848C10.6369 18.4944 8.79511 18.4332 7.10945 17.8104C5.4238 17.1877 3.98461 16.0367 3.00653 14.5291C2.02845 13.0216 1.56389 11.2383 1.68213 9.44519C1.80036 7.65206 2.49507 5.9452 3.66263 4.57915C4.83019 3.21311 6.40805 2.26108 8.16089 1.86505C9.91372 1.46902 11.7476 1.65021 13.3891 2.38159M18.3307 3.33159L9.9974 11.6733L7.4974 9.17326" stroke="#2D334A" stroke-width="2" stroke-linecap="round" stroke-linejoin="round"/>
</g>
<defs>
<clipPath id="clip0_892_11455">
<rect width="20" height="20" fill="white"/>
</clipPath>
</defs>
</svg>
