<svg width="20" height="19" viewBox="0 0 20 19" fill="none" xmlns="http://www.w3.org/2000/svg">
<path d="M10.0172 10.5251L6.8369 13.7054C6.63585 13.9065 6.37996 14.007 6.06924 14.007C5.75852 14.007 5.50263 13.9065 5.30158 13.7054C5.10053 13.5044 5 13.2485 5 12.9378C5 12.627 5.10053 12.3712 5.30158 12.1701L8.48189 8.9898L5.30158 5.8369C5.10053 5.63585 5 5.37996 5 5.06924C5 4.75852 5.10053 4.50264 5.30158 4.30158C5.50263 4.10053 5.75852 4 6.06924 4C6.37996 4 6.63585 4.10053 6.8369 4.30158L10.0172 7.48189L13.1701 4.30158C13.3712 4.10053 13.627 4 13.9378 4C14.2485 4 14.5044 4.10053 14.7054 4.30158C14.9248 4.52091 15.0344 4.78155 15.0344 5.0835C15.0344 5.38544 14.9248 5.63658 14.7054 5.8369L11.5251 8.9898L14.7054 12.1701C14.9065 12.3712 15.007 12.627 15.007 12.9378C15.007 13.2485 14.9065 13.5044 14.7054 13.7054C14.4861 13.9248 14.2258 14.0344 13.9246 14.0344C13.6234 14.0344 13.3719 13.9248 13.1701 13.7054L10.0172 10.5251Z" fill="#2D334A"/>
</svg>
