<svg width="34" height="34" viewBox="0 0 34 34" fill="none" xmlns="http://www.w3.org/2000/svg">
<g filter="url(#filter0_d_892_10887)">
<circle cx="17" cy="16" r="13" fill="#F63D55"/>
</g>
<path d="M12.5 13H13.5M13.5 13H21.5M13.5 13V20C13.5 20.2652 13.6054 20.5196 13.7929 20.7071C13.9804 20.8946 14.2348 21 14.5 21H19.5C19.7652 21 20.0196 20.8946 20.2071 20.7071C20.3946 20.5196 20.5 20.2652 20.5 20V13M15 13V12C15 11.7348 15.1054 11.4804 15.2929 11.2929C15.4804 11.1054 15.7348 11 16 11H18C18.2652 11 18.5196 11.1054 18.7071 11.2929C18.8946 11.4804 19 11.7348 19 12V13" stroke="white" stroke-linecap="round" stroke-linejoin="round"/>
<defs>
<filter id="filter0_d_892_10887" x="0" y="0" width="34" height="34" filterUnits="userSpaceOnUse" color-interpolation-filters="sRGB">
<feFlood flood-opacity="0" result="BackgroundImageFix"/>
<feColorMatrix in="SourceAlpha" type="matrix" values="0 0 0 0 0 0 0 0 0 0 0 0 0 0 0 0 0 0 127 0" result="hardAlpha"/>
<feOffset dy="1"/>
<feGaussianBlur stdDeviation="2"/>
<feComposite in2="hardAlpha" operator="out"/>
<feColorMatrix type="matrix" values="0 0 0 0 0 0 0 0 0 0 0 0 0 0 0 0 0 0 0.25 0"/>
<feBlend mode="normal" in2="BackgroundImageFix" result="effect1_dropShadow_892_10887"/>
<feBlend mode="normal" in="SourceGraphic" in2="effect1_dropShadow_892_10887" result="shape"/>
</filter>
</defs>
</svg>
