<svg width="43" height="43" viewBox="0 0 43 43" fill="none" xmlns="http://www.w3.org/2000/svg">
<g filter="url(#filter0_d_1247_11499)">
<circle cx="21.5" cy="19.5" r="17.5" fill="#2D334A"/>
</g>
<g clip-path="url(#clip0_1247_11499)">
<path d="M20.7891 13.8346H15.8307C15.455 13.8346 15.0947 13.9839 14.829 14.2496C14.5633 14.5152 14.4141 14.8756 14.4141 15.2513V25.168C14.4141 25.5437 14.5633 25.904 14.829 26.1697C15.0947 26.4354 15.455 26.5846 15.8307 26.5846H25.7474C26.1231 26.5846 26.4835 26.4354 26.7491 26.1697C27.0148 25.904 27.1641 25.5437 27.1641 25.168V20.2096M26.1016 12.7721C26.3834 12.4903 26.7655 12.332 27.1641 12.332C27.5626 12.332 27.9448 12.4903 28.2266 12.7721C28.5084 13.0539 28.6667 13.4361 28.6667 13.8346C28.6667 14.2331 28.5084 14.6153 28.2266 14.8971L21.4974 21.6263L18.6641 22.3346L19.3724 19.5013L26.1016 12.7721Z" stroke="white" stroke-width="1.5" stroke-linecap="round" stroke-linejoin="round"/>
</g>
<defs>
<filter id="filter0_d_1247_11499" x="0" y="0" width="43" height="43" filterUnits="userSpaceOnUse" color-interpolation-filters="sRGB">
<feFlood flood-opacity="0" result="BackgroundImageFix"/>
<feColorMatrix in="SourceAlpha" type="matrix" values="0 0 0 0 0 0 0 0 0 0 0 0 0 0 0 0 0 0 127 0" result="hardAlpha"/>
<feOffset dy="2"/>
<feGaussianBlur stdDeviation="2"/>
<feComposite in2="hardAlpha" operator="out"/>
<feColorMatrix type="matrix" values="0 0 0 0 0 0 0 0 0 0 0 0 0 0 0 0 0 0 0.25 0"/>
<feBlend mode="normal" in2="BackgroundImageFix" result="effect1_dropShadow_1247_11499"/>
<feBlend mode="normal" in="SourceGraphic" in2="effect1_dropShadow_1247_11499" result="shape"/>
</filter>
<clipPath id="clip0_1247_11499">
<rect width="17" height="17" fill="white" transform="translate(13 11)"/>
</clipPath>
</defs>
</svg>
