<svg width="11" height="13" viewBox="0 0 11 13" fill="none" xmlns="http://www.w3.org/2000/svg">
<path d="M5.5 11.6714C6.89792 10.4157 7.9349 9.27501 8.61094 8.24937C9.28698 7.22372 9.625 6.31265 9.625 5.51617C9.625 4.29409 9.22694 3.29356 8.43081 2.51457C7.63469 1.73558 6.65775 1.34586 5.5 1.34541C4.34225 1.34496 3.36554 1.73468 2.56987 2.51457C1.77421 3.29445 1.37592 4.29499 1.375 5.51617C1.375 6.3122 1.71302 7.22327 2.38906 8.24937C3.0651 9.27546 4.10208 10.4161 5.5 11.6714ZM5.5 13C5.33958 13 5.17917 12.972 5.01875 12.9159C4.85833 12.8599 4.7151 12.7758 4.58906 12.6636C3.84427 11.9909 3.18542 11.3351 2.6125 10.696C2.03958 10.0569 1.56131 9.43758 1.17769 8.83798C0.794062 8.23838 0.501875 7.66097 0.301125 7.10577C0.100375 6.55057 0 6.0207 0 5.51617C0 3.83441 0.552979 2.49461 1.65894 1.49677C2.7649 0.498922 4.04525 0 5.5 0C6.95475 0 8.23533 0.498922 9.34175 1.49677C10.4482 2.49461 11.0009 3.83441 11 5.51617C11 6.0207 10.8999 6.55057 10.6996 7.10577C10.4993 7.66097 10.2071 8.23838 9.823 8.83798C9.43892 9.43758 8.96042 10.0569 8.3875 10.696C7.81458 11.3351 7.15573 11.9909 6.41094 12.6636C6.2849 12.7758 6.14167 12.8599 5.98125 12.9159C5.82083 12.972 5.66042 13 5.5 13ZM5.5 8.27426C6.11875 7.71367 6.6 7.2652 6.94375 6.92885C7.2875 6.5925 7.55677 6.3122 7.75156 6.08797C7.9349 5.86373 8.06392 5.65632 8.13863 5.46572C8.21333 5.27512 8.25046 5.0677 8.25 4.84347C8.25 4.43984 8.10104 4.09228 7.80312 3.80078C7.50521 3.50927 7.15 3.36352 6.7375 3.36352C6.49687 3.36352 6.26496 3.41128 6.04175 3.5068C5.81854 3.60233 5.63796 3.73395 5.5 3.90168C5.3625 3.73351 5.1849 3.60188 4.96719 3.5068C4.74948 3.41173 4.51458 3.36397 4.2625 3.36352C3.85 3.36352 3.49479 3.50927 3.19687 3.80078C2.89896 4.09228 2.75 4.43984 2.75 4.84347C2.75 5.07891 2.78437 5.28633 2.85312 5.46572C2.92187 5.64511 3.04792 5.84692 3.23125 6.07115C3.42604 6.29539 3.68958 6.57568 4.02187 6.91203C4.35417 7.24838 4.84687 7.70246 5.5 8.27426Z" fill="#484F56"/>
</svg>
