<svg width="13" height="15" viewBox="0 0 13 15" fill="none" xmlns="http://www.w3.org/2000/svg">
<path d="M6.5 7.24041L5.225 8.12328C5.15 8.17988 5.075 8.18282 5 8.13211C4.925 8.08141 4.9 8.01621 4.925 7.93652L5.4125 6.51034L4.1 5.55955C4.0375 5.50296 4.01875 5.43799 4.04375 5.36464C4.06875 5.29129 4.125 5.25439 4.2125 5.25394H5.825L6.3125 3.86172C6.3375 3.78248 6.4 3.74287 6.5 3.74287C6.6 3.74287 6.6625 3.78248 6.6875 3.86172L7.175 5.25394H8.76875C8.85625 5.25394 8.91575 5.29084 8.94725 5.36464C8.97875 5.43844 8.963 5.50341 8.9 5.55955L7.56875 6.51034L8.05625 7.93652C8.08125 8.01575 8.05625 8.08095 7.98125 8.13211C7.90625 8.18328 7.83125 8.18033 7.75625 8.12328L6.5 7.24041ZM6.5 13.4036L2.99375 14.4562C2.74375 14.5354 2.5155 14.5071 2.309 14.3713C2.1025 14.2355 1.9995 14.0544 2 13.828V9.51551C1.525 9.04012 1.15625 8.49681 0.89375 7.88559C0.63125 7.27437 0.5 6.62353 0.5 5.93308C0.5 4.41634 1.08125 3.13165 2.24375 2.07899C3.40625 1.02633 4.825 0.5 6.5 0.5C8.175 0.5 9.59375 1.02633 10.7562 2.07899C11.9187 3.13165 12.5 4.41634 12.5 5.93308C12.5 6.62353 12.3687 7.27437 12.1062 7.88559C11.8437 8.49681 11.475 9.04012 11 9.51551V13.828C11 14.0544 10.8968 14.2355 10.6903 14.3713C10.4838 14.5071 10.2557 14.5354 10.0062 14.4562L6.5 13.4036ZM6.5 10.0079C7.75 10.0079 8.8125 9.61172 9.6875 8.8194C10.5625 8.02707 11 7.06497 11 5.93308C11 4.80119 10.5625 3.83908 9.6875 3.04675C8.8125 2.25443 7.75 1.85827 6.5 1.85827C5.25 1.85827 4.1875 2.25443 3.3125 3.04675C2.4375 3.83908 2 4.80119 2 5.93308C2 7.06497 2.4375 8.02707 3.3125 8.8194C4.1875 9.61172 5.25 10.0079 6.5 10.0079ZM3.5 12.7414L6.5 12.0453L9.5 12.7414V10.6361C9.0625 10.8625 8.5905 11.0408 8.084 11.1712C7.5775 11.3016 7.0495 11.3666 6.5 11.3662C5.9505 11.3657 5.42225 11.3005 4.91525 11.1706C4.40825 11.0406 3.9365 10.8627 3.5 10.6368V12.7414Z" fill="#484F56"/>
</svg>
