<svg width="80" height="32" viewBox="0 0 80 32" fill="none" xmlns="http://www.w3.org/2000/svg">
<path d="M2.72727 31.9992C1.22121 31.9992 0 30.7386 0 29.184V2.81518C0 1.26057 1.22121 0 2.72727 0C4.23333 0 5.45455 1.26057 5.45455 2.81518V29.184C5.45455 30.7386 4.23333 31.9992 2.72727 31.9992Z" fill="#2D334A"/>
<path d="M19.8378 31.9995C13.7075 31.9995 8.72266 26.8509 8.72266 20.5261C8.72266 14.2014 13.7105 9.05273 19.8378 9.05273C25.9651 9.05273 30.953 14.2014 30.953 20.5261C30.953 26.8509 25.9651 31.9995 19.8378 31.9995ZM19.8378 14.6831C16.7166 14.6831 14.1772 17.3043 14.1772 20.5261C14.1772 23.7479 16.7166 26.3692 19.8378 26.3692C22.959 26.3692 25.4984 23.7479 25.4984 20.5261C25.4984 17.3043 22.959 14.6831 19.8378 14.6831Z" fill="#2D334A"/>
<path d="M68.4003 31.9995C62.27 31.9995 57.2852 26.8509 57.2852 20.5261C57.2852 14.2014 62.273 9.05273 68.4003 9.05273C74.5276 9.05273 79.5155 14.2014 79.5155 20.5261C79.5155 26.8509 74.5276 31.9995 68.4003 31.9995ZM68.4003 14.6831C65.2791 14.6831 62.7397 17.3043 62.7397 20.5261C62.7397 23.7479 65.2791 26.3692 68.4003 26.3692C71.5215 26.3692 74.0609 23.7479 74.0609 20.5261C74.0609 17.3043 71.5215 14.6831 68.4003 14.6831Z" fill="#2D334A"/>
<path d="M45.3378 31.9995C39.2075 31.9995 34.2227 26.8509 34.2227 20.5261C34.2227 14.2014 39.2105 9.05273 45.3378 9.05273C48.3196 9.05273 51.1196 10.2539 53.2227 12.4372C54.2833 13.5414 54.2802 15.3212 53.2105 16.4191C52.1439 17.5139 50.4166 17.5108 49.353 16.4066C48.2833 15.2962 46.856 14.6831 45.3378 14.6831C42.2166 14.6831 39.6772 17.3043 39.6772 20.5261C39.6772 23.7479 42.2166 26.3692 45.3378 26.3692C46.856 26.3692 48.2833 25.7561 49.353 24.6457C50.4166 23.5415 52.1408 23.5384 53.2105 24.6332C54.2802 25.728 54.2833 27.5109 53.2227 28.6151C51.1196 30.7984 48.3196 31.9995 45.3378 31.9995Z" fill="#2D334A"/>
</svg>
