<svg width="300" height="124" viewBox="0 0 300 124" fill="none" xmlns="http://www.w3.org/2000/svg">
<path d="M10.2324 123.314C4.58183 123.314 0 118.457 0 112.466V10.8488C0 4.85784 4.58183 0 10.2324 0C15.8829 0 20.4647 4.85784 20.4647 10.8488V112.466C20.4647 118.457 15.8829 123.314 10.2324 123.314Z" fill="#2D334A"/>
<path d="M74.9858 123.314C51.9857 123.314 33.2832 103.473 33.2832 79.0996C33.2832 54.726 51.9971 34.8848 74.9858 34.8848C97.9745 34.8848 116.688 54.726 116.688 79.0996C116.688 103.473 97.9745 123.314 74.9858 123.314ZM74.9858 56.5823C63.2754 56.5823 53.7479 66.6837 53.7479 79.0996C53.7479 91.5154 63.2754 101.617 74.9858 101.617C86.6962 101.617 96.2236 91.5154 96.2236 79.0996C96.2236 66.6837 86.6962 56.5823 74.9858 56.5823Z" fill="#2D334A"/>
<path d="M258.298 123.314C235.298 123.314 216.596 103.473 216.596 79.0996C216.596 54.726 235.31 34.8848 258.298 34.8848C281.287 34.8848 300.001 54.726 300.001 79.0996C300.001 103.473 281.287 123.314 258.298 123.314ZM258.298 56.5823C246.588 56.5823 237.06 66.6837 237.06 79.0996C237.06 91.5154 246.588 101.617 258.298 101.617C270.009 101.617 279.536 91.5154 279.536 79.0996C279.536 66.6837 270.009 56.5823 258.298 56.5823Z" fill="#2D334A"/>
<path d="M171.218 123.314C148.218 123.314 129.516 103.473 129.516 79.0996C129.516 54.726 148.229 34.8848 171.218 34.8848C182.406 34.8848 192.911 39.5136 200.801 47.9274C204.78 52.1825 204.769 59.0414 200.756 63.2724C196.754 67.4914 190.273 67.4793 186.283 63.2242C182.269 58.9449 176.914 56.5823 171.218 56.5823C159.508 56.5823 149.98 66.6837 149.98 79.0996C149.98 91.5154 159.508 101.617 171.218 101.617C176.914 101.617 182.269 99.2542 186.283 94.9749C190.273 90.7198 196.742 90.7077 200.756 94.9267C204.769 99.1457 204.78 106.017 200.801 110.272C192.911 118.686 182.406 123.314 171.218 123.314Z" fill="#2D334A"/>
</svg>
