<svg width="174" height="43" viewBox="0 0 214 83" fill="none" xmlns="http://www.w3.org/2000/svg">
<path d="M7.85479 83C3.82243 83 0.552734 79.7303 0.552734 75.698V7.30205C0.552734 3.2697 3.82243 0 7.85479 0C11.8871 0 15.1568 3.2697 15.1568 7.30205V75.698C15.1568 79.7303 11.8871 83 7.85479 83Z" fill="#2D334A"/>
<path d="M53.672 83.0003C37.2586 83.0003 23.9121 69.6457 23.9121 53.2404C23.9121 36.8351 37.2668 23.4805 53.672 23.4805C70.0773 23.4805 83.4319 36.8351 83.4319 53.2404C83.4319 69.6457 70.0773 83.0003 53.672 83.0003ZM53.672 38.0846C45.3152 38.0846 38.5162 44.8836 38.5162 53.2404C38.5162 61.5972 45.3152 68.3962 53.672 68.3962C62.0288 68.3962 68.8278 61.5972 68.8278 53.2404C68.8278 44.8836 62.0288 38.0846 53.672 38.0846Z" fill="#2D334A"/>
<path d="M183.688 83.0003C167.274 83.0003 153.928 69.6457 153.928 53.2404C153.928 36.8351 167.282 23.4805 183.688 23.4805C200.093 23.4805 213.448 36.8351 213.448 53.2404C213.448 69.6457 200.093 83.0003 183.688 83.0003ZM183.688 38.0846C175.331 38.0846 168.532 44.8836 168.532 53.2404C168.532 61.5972 175.331 68.3962 183.688 68.3962C192.044 68.3962 198.843 61.5972 198.843 53.2404C198.843 44.8836 192.044 38.0846 183.688 38.0846Z" fill="#2D334A"/>
<path d="M121.945 83.0003C105.532 83.0003 92.1855 69.6457 92.1855 53.2404C92.1855 36.8351 105.54 23.4805 121.945 23.4805C129.929 23.4805 137.426 26.596 143.057 32.2592C145.896 35.1232 145.888 39.7397 143.024 42.5875C140.168 45.4272 135.544 45.4191 132.696 42.5551C129.832 39.6748 126.01 38.0846 121.945 38.0846C113.589 38.0846 106.79 44.8836 106.79 53.2404C106.79 61.5972 113.589 68.3962 121.945 68.3962C126.01 68.3962 129.832 66.806 132.696 63.9257C135.544 61.0617 140.16 61.0536 143.024 63.8933C145.888 66.733 145.896 71.3576 143.057 74.2216C137.426 79.8848 129.929 83.0003 121.945 83.0003Z" fill="#2D334A"/>
</svg>
