<svg width="80" height="32" viewBox="0 0 80 32" fill="none" xmlns="http://www.w3.org/2000/svg">
<path d="M2.72727 31.9992C1.22121 31.9992 0 30.7386 0 29.184V2.81518C0 1.26057 1.22121 0 2.72727 0C4.23333 0 5.45455 1.26057 5.45455 2.81518V29.184C5.45455 30.7386 4.23333 31.9992 2.72727 31.9992Z" fill="#E3F6F5"/>
<path d="M19.8378 32.0015C13.7075 32.0015 8.72266 26.8528 8.72266 20.5281C8.72266 14.2033 13.7105 9.05469 19.8378 9.05469C25.9651 9.05469 30.953 14.2033 30.953 20.5281C30.953 26.8528 25.9651 32.0015 19.8378 32.0015ZM19.8378 14.685C16.7166 14.685 14.1772 17.3063 14.1772 20.5281C14.1772 23.7499 16.7166 26.3711 19.8378 26.3711C22.959 26.3711 25.4984 23.7499 25.4984 20.5281C25.4984 17.3063 22.959 14.685 19.8378 14.685Z" fill="#E3F6F5"/>
<path d="M68.4003 32.0015C62.27 32.0015 57.2852 26.8528 57.2852 20.5281C57.2852 14.2033 62.273 9.05469 68.4003 9.05469C74.5276 9.05469 79.5155 14.2033 79.5155 20.5281C79.5155 26.8528 74.5276 32.0015 68.4003 32.0015ZM68.4003 14.685C65.2791 14.685 62.7397 17.3063 62.7397 20.5281C62.7397 23.7499 65.2791 26.3711 68.4003 26.3711C71.5215 26.3711 74.0609 23.7499 74.0609 20.5281C74.0609 17.3063 71.5215 14.685 68.4003 14.685Z" fill="#E3F6F5"/>
<path d="M45.3378 32.0015C39.2075 32.0015 34.2227 26.8528 34.2227 20.5281C34.2227 14.2033 39.2105 9.05469 45.3378 9.05469C48.3196 9.05469 51.1196 10.2558 53.2227 12.4392C54.2833 13.5433 54.2802 15.3231 53.2105 16.4211C52.1439 17.5159 50.4166 17.5127 49.353 16.4086C48.2833 15.2981 46.856 14.685 45.3378 14.685C42.2166 14.685 39.6772 17.3063 39.6772 20.5281C39.6772 23.7499 42.2166 26.3711 45.3378 26.3711C46.856 26.3711 48.2833 25.7581 49.353 24.6476C50.4166 23.5435 52.1408 23.5403 53.2105 24.6351C54.2802 25.7299 54.2833 27.5129 53.2227 28.617C51.1196 30.8004 48.3196 32.0015 45.3378 32.0015Z" fill="#E3F6F5"/>
</svg>
