<svg width="40" height="45" viewBox="0 0 40 45" fill="none" xmlns="http://www.w3.org/2000/svg">
<path d="M19.9932 2.36719C30.189 2.36738 38.4541 10.3207 38.4541 20.1309C38.454 26.9966 34.4048 32.9505 28.4795 35.9072L20.3008 43.8145L12.6729 36.4414C6.1184 33.7146 1.53139 27.4386 1.53125 20.1309C1.53125 10.3205 9.79714 2.36719 19.9932 2.36719Z" fill="#2D334A"/>
<path d="M19.7988 0.5H20.2051C30.2361 0.5 38.4647 8.17949 39.4014 18.0156L39.4404 18.4854C39.7739 23.1952 38.7383 28.1786 35.6934 32.208C32.2676 36.7438 28.7653 39.8611 23.3965 43.4668C21.3451 44.8447 18.6519 44.8449 16.6006 43.4668V43.4658C11.5675 40.0885 8.17187 37.1355 4.94434 33.042L4.30078 32.208C1.35725 28.3074 0.290835 23.5056 0.533203 18.9277L0.560547 18.4854C1.27232 8.42525 9.59855 0.5 19.7988 0.5ZM19.7988 3.51758C11.417 3.51758 4.32867 10.0651 3.7168 18.6875C3.4202 22.8723 4.36201 27.1137 6.87305 30.4443V30.4453C10.0538 34.6521 13.2789 37.542 18.4268 40.998C18.8883 41.3137 19.4379 41.4823 20 41.4824C20.562 41.4824 21.1117 41.3135 21.5732 40.998L21.5742 40.999C26.7256 37.5429 29.9504 34.6522 33.1279 30.4453V30.4443C35.6391 27.1168 36.5808 22.8753 36.2842 18.6875C35.6723 10.0652 28.5836 3.51758 20.2051 3.51758H19.7988ZM13.2041 12.1494C14.2621 11.6731 15.4703 11.6044 16.5801 11.958L16.5859 11.96C17.5952 12.2687 18.6291 12.9053 19.6426 13.9316L19.998 14.291L20.3545 13.9326C21.3722 12.9052 22.4033 12.2676 23.4092 11.959L23.4131 11.958C24.5233 11.6053 25.7324 11.675 26.79 12.1523L26.791 12.1533C28.7747 13.0425 30.091 15.226 30.1221 17.457V17.4629C30.1221 20.7643 28.0786 23.7437 25.8379 25.876L25.8359 25.877C24.826 26.8441 23.7053 27.6987 22.4951 28.4229C21.9842 28.7232 21.506 28.9602 21.0898 29.125C20.6815 29.285 20.3046 29.3867 19.999 29.3867C19.6975 29.3867 19.3187 29.2849 18.9121 29.126C18.4895 28.9573 18.0176 28.7234 17.498 28.4199H17.4971C16.5975 27.8951 15.5803 27.1603 14.585 26.2676L14.1602 25.876C11.9191 23.7434 9.87207 20.7642 9.87207 17.4629V17.459C9.90922 15.2262 11.2233 13.0415 13.2041 12.1494Z" fill="white" stroke="#2D334A"/>
</svg>
