<svg width="12" height="12" viewBox="0 0 12 12" fill="none" xmlns="http://www.w3.org/2000/svg">
<path d="M1.5 10.0016C1.5 9.36481 1.5 9.04666 1.698 8.84956C1.89555 8.65156 2.21325 8.65156 2.85 8.65156C3.48675 8.65156 3.8049 8.65156 4.002 8.84956C4.2 9.04711 4.2 9.36526 4.2 10.0016V5.95156C4.2 5.31481 4.2 4.99666 4.398 4.79956C4.59555 4.60156 4.9137 4.60156 5.55 4.60156H6.45C7.08675 4.60156 7.4049 4.60156 7.602 4.79956C7.8 4.99711 7.8 5.31526 7.8 5.95156V10.0016V8.65156C7.8 8.01481 7.8 7.69666 7.998 7.49956C8.19555 7.30156 8.51325 7.30156 9.15 7.30156C9.78675 7.30156 10.1049 7.30156 10.302 7.49956C10.5 7.69711 10.5 8.01526 10.5 8.65156V10.0016" stroke="white" stroke-linecap="round"/>
<path d="M5.61426 1.46035C5.78526 1.153 5.87076 1 5.99856 1C6.12636 1 6.21186 1.153 6.38286 1.46035L6.42696 1.53955C6.47556 1.62685 6.49986 1.67005 6.53766 1.69885C6.57591 1.72765 6.62316 1.73845 6.71766 1.7596L6.80316 1.7794C7.13526 1.85455 7.30131 1.8919 7.34091 2.0188C7.38051 2.1457 7.26711 2.27845 7.04076 2.54305L6.98226 2.61145C6.91791 2.6866 6.88551 2.72395 6.87111 2.77075C6.85671 2.81755 6.86166 2.8675 6.87111 2.96785L6.88011 3.0592C6.91431 3.41245 6.93141 3.5893 6.82836 3.6676C6.72486 3.74635 6.56916 3.67435 6.25821 3.53125L6.17811 3.49435C6.08946 3.45385 6.04536 3.43315 5.99856 3.43315C5.95176 3.43315 5.90766 3.45385 5.81901 3.49435L5.73891 3.53125C5.42796 3.67435 5.27226 3.74635 5.16876 3.6676C5.06526 3.5893 5.08281 3.41245 5.11701 3.0592L5.12601 2.96785C5.13546 2.8675 5.14041 2.81755 5.12601 2.77075C5.11161 2.72395 5.07921 2.6866 5.01486 2.61145L4.95636 2.54305C4.73001 2.27845 4.61661 2.14615 4.65621 2.0188C4.69581 1.8919 4.86186 1.85455 5.19396 1.7794L5.27946 1.7596C5.37396 1.73845 5.42121 1.7281 5.45946 1.69885C5.49726 1.67005 5.52156 1.62685 5.57016 1.53955L5.61426 1.46035Z" stroke="white"/>
</svg>
