<svg width="11" height="11" viewBox="0 0 11 11" fill="none" xmlns="http://www.w3.org/2000/svg">
<g clip-path="url(#clip0_892_10449)">
<path d="M4.853 0.963376C5.01525 0.801343 5.23233 0.706 5.46141 0.696158C5.6905 0.686316 5.91496 0.762689 6.0905 0.910209L6.14917 0.963834L7.02 1.83421H8.25108C8.48227 1.83425 8.7049 1.92165 8.87438 2.07888C9.04386 2.23612 9.14766 2.45159 9.165 2.68213L9.16775 2.75088V3.98196L10.0386 4.85279C10.2007 5.01506 10.2962 5.23223 10.306 5.46143C10.3159 5.69062 10.2394 5.91518 10.0918 6.09075L10.0381 6.14896L9.16729 7.01979V8.25088C9.16737 8.48214 9.08002 8.70489 8.92277 8.87446C8.76552 9.04403 8.54999 9.14791 8.31938 9.16525L8.25108 9.16754H7.02046L6.14963 10.0384C5.98736 10.2005 5.77019 10.296 5.54099 10.3058C5.3118 10.3156 5.08724 10.2392 4.91167 10.0915L4.85346 10.0384L3.98263 9.16754H2.75109C2.51982 9.16761 2.29708 9.08027 2.1275 8.92302C1.95793 8.76577 1.85405 8.55024 1.83671 8.31963L1.83442 8.25088V7.01979L0.963585 6.14896C0.801424 5.98669 0.706001 5.76952 0.696157 5.54032C0.686314 5.31113 0.762767 5.08657 0.910418 4.911L0.963585 4.85279L1.83442 3.98196V2.75088C1.83446 2.51969 1.92186 2.29706 2.07909 2.12758C2.23633 1.9581 2.4518 1.8543 2.68234 1.83696L2.75109 1.83421H3.98217L4.853 0.963376ZM5.50109 1.61238L4.63025 2.48321C4.47801 2.63522 4.27715 2.72883 4.06284 2.74767L3.98217 2.75088H2.75109V3.98196C2.75114 4.19733 2.67536 4.40584 2.53704 4.57092L2.4825 4.6305L1.61167 5.50133L2.4825 6.37171C2.63468 6.52389 2.72846 6.72475 2.74742 6.93913L2.75109 7.01979V8.25088H3.98217C4.19754 8.25082 4.40605 8.3266 4.57113 8.46492L4.63071 8.51946L5.50109 9.39029L6.37192 8.51946C6.5241 8.36728 6.72496 8.2735 6.93933 8.25454L7.02 8.25088H8.25108V7.01979C8.25103 6.80442 8.32681 6.59591 8.46513 6.43083L8.51967 6.37125L9.3905 5.50088L8.51967 4.63004C8.36749 4.47787 8.27371 4.277 8.25475 4.06263L8.25108 3.98196V2.75088H7.02C6.80463 2.75093 6.59612 2.67515 6.43104 2.53683L6.37146 2.48229L5.50063 1.61146L5.50109 1.61238ZM6.91275 4.11854C6.99523 4.03634 7.10591 3.98862 7.2223 3.98506C7.3387 3.98151 7.45208 4.02239 7.53942 4.09941C7.62676 4.17642 7.68152 4.28379 7.69256 4.39972C7.7036 4.51564 7.67011 4.63142 7.59888 4.72354L7.56038 4.76663L5.32371 7.00329C5.23639 7.09073 5.11999 7.14305 4.99663 7.15032C4.87326 7.15758 4.75153 7.11929 4.65454 7.04271L4.61054 7.00375L3.50871 5.90192C3.42564 5.81963 3.37715 5.7087 3.37319 5.59183C3.36922 5.47497 3.41008 5.36101 3.48738 5.27328C3.56469 5.18554 3.6726 5.13068 3.78904 5.11991C3.90547 5.10914 4.02162 5.14327 4.11371 5.21533L4.15679 5.25338L4.96713 6.06371L6.91275 4.11854Z" fill="white"/>
</g>
<defs>
<clipPath id="clip0_892_10449">
<rect width="11" height="11" fill="white"/>
</clipPath>
</defs>
</svg>
