<svg width="9" height="9" viewBox="0 0 9 9" fill="none" xmlns="http://www.w3.org/2000/svg">
<g clip-path="url(#clip0_1287_11679)">
<path d="M8.25101 6.34504V7.47004C8.25144 7.57447 8.23004 7.67785 8.1882 7.77354C8.14636 7.86923 8.085 7.95513 8.00804 8.02574C7.93108 8.09634 7.84023 8.15009 7.74129 8.18355C7.64236 8.21701 7.53753 8.22944 7.43351 8.22004C6.27958 8.09465 5.17114 7.70034 4.19726 7.06879C3.2912 6.49304 2.52301 5.72485 1.94726 4.81879C1.3135 3.84049 0.919104 2.72666 0.796013 1.56754C0.786641 1.46384 0.798966 1.35932 0.8322 1.26065C0.865435 1.16197 0.918852 1.07129 0.98905 0.994394C1.05925 0.917494 1.14469 0.856052 1.23993 0.813982C1.33518 0.771912 1.43814 0.750134 1.54226 0.750036H2.66726C2.84925 0.748245 3.02568 0.812691 3.16367 0.931361C3.30166 1.05003 3.39179 1.21483 3.41726 1.39504C3.46475 1.75506 3.55281 2.10856 3.67976 2.44879C3.73022 2.58301 3.74114 2.72888 3.71123 2.86912C3.68132 3.00935 3.61184 3.13808 3.51101 3.24004L3.03476 3.71629C3.5686 4.65512 4.34593 5.43245 5.28476 5.96629L5.76101 5.49004C5.86297 5.38921 5.9917 5.31973 6.13193 5.28982C6.27217 5.25991 6.41804 5.27083 6.55226 5.32129C6.89249 5.44824 7.24599 5.5363 7.60601 5.58379C7.78817 5.60949 7.95454 5.70124 8.07346 5.8416C8.19239 5.98196 8.25558 6.16113 8.25101 6.34504Z" stroke="#2D334A" stroke-linecap="round" stroke-linejoin="round"/>
</g>
<defs>
<clipPath id="clip0_1287_11679">
<rect width="9" height="9" fill="white"/>
</clipPath>
</defs>
</svg>
