<svg width="9" height="9" viewBox="0 0 9 9" fill="none" xmlns="http://www.w3.org/2000/svg">
<g clip-path="url(#clip0_1287_11665)">
<path d="M3.74835 4.87354C3.9094 5.08884 4.11486 5.26699 4.35081 5.3959C4.58675 5.52481 4.84766 5.60146 5.11584 5.62067C5.38402 5.63988 5.65319 5.60118 5.9051 5.50721C6.157 5.41324 6.38576 5.26619 6.57584 5.07604L7.70083 3.95104C8.04238 3.59741 8.23137 3.12377 8.22709 2.63215C8.22282 2.14053 8.02563 1.67026 7.67799 1.32261C7.33035 0.974973 6.86008 0.77778 6.36847 0.773508C5.87685 0.769236 5.40322 0.958227 5.0496 1.29977L4.4046 1.94103M5.24834 4.12354C5.0873 3.90824 4.88184 3.73009 4.64589 3.60118C4.40994 3.47227 4.14903 3.39562 3.88086 3.37641C3.61268 3.3572 3.34351 3.3959 3.0916 3.48987C2.83969 3.58384 2.61094 3.73088 2.42086 3.92104L1.29586 5.04604C0.954319 5.39967 0.76533 5.8733 0.769602 6.36493C0.773874 6.85655 0.971065 7.32682 1.3187 7.67446C1.66634 8.02211 2.13661 8.2193 2.62823 8.22357C3.11985 8.22784 3.59347 8.03885 3.9471 7.69731L4.58835 7.05605" stroke="#2D334A" stroke-linecap="round" stroke-linejoin="round"/>
</g>
<defs>
<clipPath id="clip0_1287_11665">
<rect width="8.99996" height="9.00004" fill="white"/>
</clipPath>
</defs>
</svg>
