<svg width="40" height="45" viewBox="0 0 40 45" fill="none" xmlns="http://www.w3.org/2000/svg">
<path d="M19.9932 2.36719C30.189 2.36738 38.4541 10.3207 38.4541 20.1309C38.454 26.9966 34.4048 32.9505 28.4795 35.9072L20.3008 43.8145L12.6729 36.4414C6.1184 33.7146 1.53139 27.4386 1.53125 20.1309C1.53125 10.3205 9.79714 2.36719 19.9932 2.36719Z" fill="#BAE8E8"/>
<path fill-rule="evenodd" clip-rule="evenodd" d="M4.21533 18.7232C4.80867 10.3596 11.6821 4.01786 19.7988 4.01786H20.2055C28.3189 4.01786 35.1923 10.3596 35.7856 18.7232C36.0756 22.8182 35.1523 26.9325 32.7289 30.1436C29.5922 34.2964 26.4122 37.1507 21.2955 40.5836C20.9173 40.8431 20.4646 40.9826 20.0005 40.9826C19.5363 40.9826 19.0836 40.8431 18.7055 40.5836C13.5921 37.1507 10.4121 34.2964 7.27203 30.1436C4.84867 26.9293 3.92533 22.815 4.21533 18.7232ZM19.7988 0C9.33204 0 0.791972 8.13214 0.0619655 18.45C-0.281371 23.2521 0.775305 28.3661 3.902 32.5093C7.36869 37.0993 10.9187 40.2557 16.3221 43.8814C18.5421 45.3729 21.4555 45.3729 23.6755 43.8814C29.0789 40.2525 32.6256 37.0993 36.0923 32.5093C39.2256 28.3629 40.279 23.2521 39.939 18.45C39.2056 8.13214 30.6622 0 20.2055 0H19.7988ZM19.9988 13.5804C18.9388 12.5068 17.8354 11.8189 16.7321 11.4814C15.5051 11.0905 14.1696 11.1664 12.9987 11.6936C10.8221 12.6739 9.41204 15.0461 9.37204 17.4504V17.4632C9.37204 20.9668 11.5354 24.0686 13.8154 26.2382C14.9688 27.3343 16.1821 28.2311 17.2454 28.8514C17.781 29.1643 18.2743 29.4107 18.7255 29.5907C19.1521 29.7579 19.6021 29.8864 19.9988 29.8864C20.3988 29.8864 20.8455 29.7579 21.2721 29.5907C21.7188 29.4139 22.2222 29.1632 22.7522 28.8514C23.9943 28.1082 25.145 27.2315 26.1822 26.2382C28.4622 24.0686 30.6222 20.9668 30.6222 17.4632V17.4504C30.5889 15.0461 29.1755 12.6739 26.9955 11.6968C25.8251 11.1685 24.4896 11.0915 23.2622 11.4814C22.1622 11.8189 21.0621 12.5068 19.9988 13.5804Z" fill="#2D334A"/>
</svg>
