<svg width="32" height="32" viewBox="0 0 32 32" fill="none" xmlns="http://www.w3.org/2000/svg">
<g clip-path="url(#clip0_771_10164)">
<path d="M26.668 16.0013V29.3346H5.33464V16.0013M16.0013 29.3346V9.33464M16.0013 9.33464H10.0013C9.11725 9.33464 8.2694 8.98345 7.64428 8.35832C7.01916 7.7332 6.66797 6.88536 6.66797 6.0013C6.66797 5.11725 7.01916 4.2694 7.64428 3.64428C8.2694 3.01916 9.11725 2.66797 10.0013 2.66797C14.668 2.66797 16.0013 9.33464 16.0013 9.33464ZM16.0013 9.33464H22.0013C22.8854 9.33464 23.7332 8.98345 24.3583 8.35832C24.9834 7.7332 25.3346 6.88536 25.3346 6.0013C25.3346 5.11725 24.9834 4.2694 24.3583 3.64428C23.7332 3.01916 22.8854 2.66797 22.0013 2.66797C17.3346 2.66797 16.0013 9.33464 16.0013 9.33464ZM2.66797 9.33464H29.3346V16.0013H2.66797V9.33464Z" stroke="#2D334A" stroke-width="4" stroke-linecap="round" stroke-linejoin="round"/>
</g>
<defs>
<clipPath id="clip0_771_10164">
<rect width="32" height="32" fill="white"/>
</clipPath>
</defs>
</svg>
