<svg width="20" height="21" viewBox="0 0 20 21" fill="none" xmlns="http://www.w3.org/2000/svg">
<path fill-rule="evenodd" clip-rule="evenodd" d="M10 12C11.0609 12 12.0783 11.5786 12.8284 10.8284C13.5786 10.0783 14 9.06087 14 8C14 6.93913 13.5786 5.92172 12.8284 5.17157C12.0783 4.42143 11.0609 4 10 4C8.93913 4 7.92172 4.42143 7.17157 5.17157C6.42143 5.92172 6 6.93913 6 8C6 9.06087 6.42143 10.0783 7.17157 10.8284C7.92172 11.5786 8.93913 12 10 12ZM10 11C10.394 11 10.7841 10.9224 11.1481 10.7716C11.512 10.6209 11.8427 10.3999 12.1213 10.1213C12.3999 9.84274 12.6209 9.51203 12.7716 9.14805C12.9224 8.78407 13 8.39397 13 8C13 7.60603 12.9224 7.21593 12.7716 6.85195C12.6209 6.48797 12.3999 6.15726 12.1213 5.87868C11.8427 5.6001 11.512 5.37913 11.1481 5.22836C10.7841 5.0776 10.394 5 10 5C9.20435 5 8.44129 5.31607 7.87868 5.87868C7.31607 6.44129 7 7.20435 7 8C7 8.79565 7.31607 9.55871 7.87868 10.1213C8.44129 10.6839 9.20435 11 10 11Z" fill="#7A7A7A"/>
<path fill-rule="evenodd" clip-rule="evenodd" d="M20 10.5C20 16.023 15.523 20.5 10 20.5C4.477 20.5 0 16.023 0 10.5C0 4.977 4.477 0.5 10 0.5C15.523 0.5 20 4.977 20 10.5ZM14.815 18.105C13.3757 19.0192 11.7051 19.5032 10 19.5C8.25417 19.5032 6.54553 18.9957 5.0845 18.04C4.9645 17.89 4.84283 17.735 4.7195 17.575C4.57645 17.3876 4.49929 17.1582 4.5 16.9225C4.5 16.384 4.887 15.9325 5.4045 15.857C8.827 15.357 11.1835 15.4 14.6105 15.8745C14.8586 15.9108 15.0851 16.0354 15.2486 16.2255C15.412 16.4156 15.5013 16.6583 15.5 16.909C15.5 17.149 15.4175 17.382 15.2685 17.564C15.1148 17.751 14.9637 17.9313 14.815 18.105ZM16.4925 16.733C16.4125 15.797 15.702 15.016 14.7475 14.884C11.2395 14.3985 8.7875 14.352 5.26 14.8675C4.3 15.0075 3.5925 15.7955 3.5085 16.734C1.89616 15.0595 0.996822 12.8245 1 10.5C1 5.5295 5.0295 1.5 10 1.5C14.9705 1.5 19 5.5295 19 10.5C19.0032 12.8241 18.1042 15.0586 16.4925 16.733Z" fill="#7A7A7A"/>
</svg>
