<svg width="13" height="13" viewBox="0 0 13 13" fill="none" xmlns="http://www.w3.org/2000/svg">
<path d="M2.81797 11.918C2.69158 11.918 2.60582 11.8638 2.56068 11.7555C2.51554 11.6471 2.53811 11.5478 2.62839 11.4576L3.2513 10.8346H9.7513L10.3742 11.4576C10.4645 11.5478 10.4871 11.6471 10.4419 11.7555C10.3968 11.8638 10.311 11.918 10.1846 11.918H2.81797ZM3.79297 10.293L4.33464 9.7513H4.0638C3.54019 9.7513 3.09332 9.56623 2.72318 9.19609C2.35304 8.82596 2.16797 8.37908 2.16797 7.85547V4.33464C2.16797 3.17005 2.58559 2.24687 3.42084 1.56509C4.25609 0.883316 5.28291 0.542608 6.5013 0.542969C7.71969 0.54333 8.74669 0.884219 9.5823 1.56564C10.4179 2.24705 10.8354 3.17005 10.8346 4.33464V7.85547C10.8346 8.37908 10.6496 8.82596 10.2794 9.19609C9.90929 9.56623 9.46241 9.7513 8.9388 9.7513H8.66797L9.20964 10.293H3.79297ZM4.0638 8.66797H8.9388C9.1645 8.66797 9.35643 8.58907 9.51459 8.43126C9.67276 8.27346 9.75166 8.08153 9.7513 7.85547V5.95964H3.2513V7.85547C3.2513 8.08116 3.33039 8.27309 3.48855 8.43126C3.64672 8.58943 3.83847 8.66833 4.0638 8.66797ZM6.5013 8.1263C6.727 8.1263 6.91893 8.0474 7.07709 7.88959C7.23526 7.73179 7.31416 7.53986 7.3138 7.3138C7.31344 7.08775 7.23454 6.896 7.07709 6.73855C6.91965 6.58111 6.72772 6.50203 6.5013 6.5013C6.27489 6.50058 6.08314 6.57966 5.92605 6.73855C5.76897 6.89744 5.68989 7.08919 5.6888 7.3138C5.68772 7.53841 5.7668 7.73034 5.92605 7.88959C6.0853 8.04884 6.27705 8.12775 6.5013 8.1263ZM3.2513 4.8763H9.7513V4.33464C9.7513 4.127 9.73108 3.93525 9.69064 3.75939C9.65019 3.58352 9.59368 3.41416 9.52109 3.2513H3.48151C3.40929 3.4138 3.35295 3.58316 3.31251 3.75939C3.27207 3.93561 3.25166 4.12736 3.2513 4.33464V4.8763ZM4.45651 2.16797H8.54609C8.26623 1.98741 7.95261 1.852 7.60522 1.76172C7.25783 1.67144 6.88986 1.6263 6.5013 1.6263C6.11275 1.6263 5.74496 1.67144 5.39793 1.76172C5.0509 1.852 4.73709 1.98741 4.45651 2.16797Z" fill="#9699A4"/>
</svg>
