<svg width="13" height="13" viewBox="0 0 13 13" fill="none" xmlns="http://www.w3.org/2000/svg">
<path d="M3.51953 1.6263C3.11328 1.6263 2.78612 1.852 2.53803 2.30339C2.28995 2.75477 2.16573 3.2513 2.16537 3.79297C2.16537 4.36172 2.24445 4.86511 2.40262 5.30314C2.56078 5.74116 2.70739 6.06833 2.84245 6.28464L4.33203 5.98672C4.44939 5.69783 4.5691 5.36832 4.69116 4.99818C4.81321 4.62804 4.87406 4.2263 4.8737 3.79297C4.8737 3.2513 4.74966 2.75477 4.50157 2.30339C4.25349 1.852 3.92614 1.6263 3.51953 1.6263ZM4.26432 8.66797C4.43585 8.66797 4.5803 8.60477 4.69766 8.47839C4.81502 8.352 4.8737 8.17596 4.8737 7.95026C4.8737 7.79679 4.83759 7.6388 4.76537 7.4763C4.69314 7.3138 4.62092 7.16936 4.5487 7.04297L3.2487 7.3138C3.2487 7.67491 3.32778 7.99089 3.48595 8.26172C3.64412 8.53255 3.90357 8.66797 4.26432 8.66797ZM9.47787 4.33464C9.07162 4.33464 8.74445 4.56033 8.49637 5.01172C8.24828 5.46311 8.12406 5.95964 8.1237 6.5013C8.1237 6.93464 8.18473 7.33421 8.30678 7.70001C8.42884 8.06582 8.54837 8.3975 8.66537 8.69505L10.1549 8.99297C10.2904 8.7763 10.4372 8.4513 10.5953 8.01797C10.7535 7.58464 10.8324 7.07908 10.832 6.5013C10.832 5.95964 10.708 5.46311 10.4599 5.01172C10.2118 4.56033 9.88448 4.33464 9.47787 4.33464ZM8.73307 11.3763C9.09419 11.3763 9.35382 11.2409 9.51199 10.9701C9.67016 10.6992 9.74906 10.3832 9.7487 10.0221L8.4487 9.7513C8.37648 9.87769 8.30425 10.0221 8.23203 10.1846C8.15981 10.3471 8.1237 10.5051 8.1237 10.6586C8.1237 10.8391 8.18021 11.004 8.29324 11.1531C8.40627 11.3023 8.55288 11.3767 8.73307 11.3763ZM4.26432 9.7513C3.56919 9.7513 3.04106 9.49401 2.67995 8.97943C2.31884 8.46485 2.14731 7.88707 2.16537 7.24609L1.92162 6.88047C1.82231 6.727 1.65746 6.37943 1.42707 5.83776C1.19668 5.29609 1.08167 4.6145 1.08203 3.79297C1.08203 2.86311 1.31224 2.08889 1.77266 1.4703C2.23307 0.851719 2.81537 0.542608 3.51953 0.542969C4.28689 0.542969 4.88507 0.883858 5.31407 1.56564C5.74307 2.24741 5.95739 2.98986 5.95703 3.79297C5.95703 4.31658 5.88481 4.79957 5.74037 5.24193C5.59592 5.68429 5.46953 6.04089 5.3612 6.31172L5.46953 6.48776C5.54175 6.61415 5.64106 6.81511 5.76745 7.09064C5.89384 7.36616 5.95703 7.65271 5.95703 7.95026C5.95703 8.46484 5.7967 8.89366 5.47603 9.23672C5.15537 9.57977 4.7511 9.7513 4.26432 9.7513ZM8.73362 12.4596C8.24612 12.4596 7.84203 12.2881 7.52137 11.9451C7.2007 11.602 7.04037 11.1732 7.04037 10.6586C7.04037 10.3607 7.10356 10.074 7.22995 9.79843C7.35634 9.5229 7.45564 9.32212 7.52787 9.19609L7.6362 9.02005C7.52787 8.74922 7.40148 8.39262 7.25703 7.95026C7.11259 7.5079 7.04037 7.02491 7.04037 6.5013C7.04037 5.69783 7.25487 4.95539 7.68387 4.27397C8.11287 3.59255 8.71087 3.25166 9.47787 3.2513C10.182 3.2513 10.7643 3.56059 11.2247 4.17918C11.6852 4.79776 11.9154 5.5718 11.9154 6.5013C11.9154 7.32283 11.8002 8.00226 11.5698 8.53959C11.3394 9.07693 11.1747 9.42215 11.0758 9.57526L10.832 9.95443C10.8411 10.5954 10.6674 11.1732 10.3109 11.6878C9.95453 12.2023 9.42912 12.4596 8.73362 12.4596Z" fill="#9699A4"/>
</svg>
