<svg width="13" height="13" viewBox="0 0 13 13" fill="none" xmlns="http://www.w3.org/2000/svg">
<path d="M8.53784 2.16797C8.83957 2.16798 9.13534 2.252 9.39202 2.41062C9.6487 2.56924 9.85615 2.79619 9.99113 3.06605L10.7403 4.56376C10.8724 4.50959 11.004 4.45489 11.1319 4.39151C11.2605 4.32729 11.4093 4.31679 11.5456 4.36229C11.6819 4.4078 11.7946 4.5056 11.8588 4.63418C11.923 4.76275 11.9335 4.91157 11.888 5.04789C11.8425 5.18422 11.7447 5.29688 11.6161 5.36109C11.3485 5.49434 11.2261 5.53551 11.2261 5.53551L11.744 6.57172C11.8572 6.79759 11.9157 7.04622 11.9157 7.29864V8.66797C11.9157 8.8966 11.8674 9.12265 11.7741 9.33135C11.6807 9.54006 11.5444 9.72672 11.374 9.87914V10.5638C11.374 10.7793 11.2884 10.986 11.136 11.1383C10.9837 11.2907 10.777 11.3763 10.5615 11.3763C10.346 11.3763 10.1394 11.2907 9.98698 11.1383C9.8346 10.986 9.749 10.7793 9.749 10.5638V10.293H3.249V10.5638C3.249 10.7793 3.1634 10.986 3.01103 11.1383C2.85865 11.2907 2.65199 11.3763 2.4365 11.3763C2.22101 11.3763 2.01435 11.2907 1.86198 11.1383C1.7096 10.986 1.624 10.7793 1.624 10.5638V9.87914C1.29142 9.58122 1.08234 9.14897 1.08234 8.66797V7.29864C1.08244 7.04647 1.14122 6.79778 1.25404 6.57226L1.77188 5.53551C1.64064 5.48121 1.51095 5.42322 1.38296 5.36164C1.31911 5.32996 1.26215 5.28599 1.21532 5.23226C1.1685 5.17853 1.13274 5.11608 1.1101 5.0485C1.08745 4.98092 1.07837 4.90953 1.08336 4.83844C1.08836 4.76734 1.10734 4.69793 1.13921 4.63418C1.20474 4.50617 1.31803 4.40911 1.45458 4.364C1.59113 4.31889 1.73995 4.32936 1.86884 4.39314C1.99667 4.45452 2.12631 4.5114 2.25775 4.56376L3.00688 3.06605C3.14185 2.79619 3.3493 2.56924 3.60598 2.41062C3.86266 2.252 4.15843 2.16798 4.46017 2.16797H8.53784ZM10.2008 5.90764C9.27992 6.19851 7.96963 6.5013 6.499 6.5013C5.02838 6.5013 3.71809 6.19797 2.79725 5.90764L2.22309 7.05597C2.18533 7.13129 2.16567 7.21438 2.16567 7.29864V8.66797C2.16567 8.81163 2.22274 8.9494 2.32432 9.05099C2.4259 9.15257 2.56368 9.20964 2.70734 9.20964H10.2907C10.4343 9.20964 10.5721 9.15257 10.6737 9.05099C10.7753 8.9494 10.8323 8.81163 10.8323 8.66797V7.29864C10.8322 7.21457 10.8126 7.13167 10.7749 7.05651L10.2008 5.90764ZM4.0615 7.04297C4.27699 7.04297 4.48365 7.12857 4.63603 7.28094C4.7884 7.43332 4.874 7.63998 4.874 7.85547C4.874 8.07096 4.7884 8.27762 4.63603 8.42999C4.48365 8.58237 4.27699 8.66797 4.0615 8.66797C3.84601 8.66797 3.63935 8.58237 3.48698 8.42999C3.3346 8.27762 3.249 8.07096 3.249 7.85547C3.249 7.63998 3.3346 7.43332 3.48698 7.28094C3.63935 7.12857 3.84601 7.04297 4.0615 7.04297ZM8.9365 7.04297C9.15199 7.04297 9.35865 7.12857 9.51103 7.28094C9.6634 7.43332 9.749 7.63998 9.749 7.85547C9.749 8.07096 9.6634 8.27762 9.51103 8.42999C9.35865 8.58237 9.15199 8.66797 8.9365 8.66797C8.72101 8.66797 8.51435 8.58237 8.36198 8.42999C8.2096 8.27762 8.124 8.07096 8.124 7.85547C8.124 7.63998 8.2096 7.43332 8.36198 7.28094C8.51435 7.12857 8.72101 7.04297 8.9365 7.04297ZM8.53784 3.2513H4.46017C4.3596 3.25136 4.26104 3.27941 4.17551 3.33231C4.08998 3.38521 4.02087 3.46088 3.97592 3.55084L3.288 4.92505C4.1265 5.17693 5.25642 5.41797 6.499 5.41797C7.74159 5.41797 8.8715 5.17693 9.70946 4.92505L9.02209 3.55084C8.97713 3.46088 8.90802 3.38521 8.8225 3.33231C8.73697 3.27941 8.6384 3.25136 8.53784 3.2513Z" fill="#9699A4"/>
</svg>
