<svg width="13" height="13" viewBox="0 0 13 13" fill="none" xmlns="http://www.w3.org/2000/svg">
<g clip-path="url(#clip0_1039_12337)">
<path d="M2.70833 10.8346C1.94097 10.8346 1.29783 10.5752 0.778917 10.0563C0.26 9.53734 0.000361481 8.89402 3.69738e-07 8.1263C-0.000360741 7.35858 0.263792 6.71544 0.792459 6.19689C1.32113 5.67833 1.95975 5.41869 2.70833 5.41797C3.40347 5.41797 3.98811 5.62561 4.46225 6.04089C4.93639 6.45616 5.23647 6.97075 5.3625 7.58464H5.71458L4.73958 4.8763H4.33333C4.17986 4.8763 4.05131 4.8243 3.94767 4.7203C3.84403 4.6163 3.79203 4.48775 3.79167 4.33464C3.79131 4.18152 3.84331 4.05297 3.94767 3.94897C4.05203 3.84497 4.18058 3.79297 4.33333 3.79297H5.95833C6.11181 3.79297 6.24054 3.84497 6.34454 3.94897C6.44854 4.05297 6.50036 4.18152 6.5 4.33464C6.49964 4.48775 6.44764 4.61648 6.344 4.72084C6.24036 4.82521 6.11181 4.87702 5.95833 4.8763H5.90417L6.09375 5.41797H8.69375L7.90833 3.2513H7.04167C6.8882 3.2513 6.75964 3.1993 6.656 3.0953C6.55236 2.9913 6.50036 2.86275 6.5 2.70964C6.49964 2.55652 6.55164 2.42797 6.656 2.32397C6.76036 2.21997 6.88892 2.16797 7.04167 2.16797H7.90833C8.14306 2.16797 8.35304 2.23116 8.53829 2.35755C8.72354 2.48394 8.85661 2.65547 8.9375 2.87214L9.85833 5.39089H10.2917C11.041 5.39089 11.6798 5.65504 12.2081 6.18334C12.7364 6.71165 13.0004 7.35027 13 8.09922C13 8.85755 12.7382 9.50304 12.2146 10.0357C11.691 10.5683 11.05 10.8346 10.2917 10.8346C9.64167 10.8346 9.07075 10.6315 8.57892 10.2253C8.08708 9.81901 7.77328 9.29991 7.6375 8.66797H5.3625C5.23611 9.29089 4.92917 9.80782 4.44167 10.2188C3.95417 10.6297 3.37639 10.835 2.70833 10.8346ZM2.70833 9.7513C3.07847 9.7513 3.39679 9.64983 3.66329 9.44689C3.92979 9.24394 4.11703 8.9843 4.225 8.66797H3.25C3.09653 8.66797 2.96797 8.61597 2.86433 8.51197C2.76069 8.40797 2.70869 8.27941 2.70833 8.1263C2.70797 7.97319 2.75997 7.84464 2.86433 7.74064C2.96869 7.63664 3.09725 7.58464 3.25 7.58464H4.225C4.11667 7.25964 3.92943 6.99783 3.66329 6.79922C3.39715 6.60061 3.07883 6.5013 2.70833 6.5013C2.24792 6.5013 1.86207 6.65712 1.55079 6.96876C1.23951 7.2804 1.08369 7.66625 1.08333 8.1263C1.08333 8.57769 1.23915 8.96137 1.55079 9.27734C1.86243 9.59332 2.24828 9.7513 2.70833 9.7513ZM6.87917 7.58464H7.6375C7.68264 7.377 7.74367 7.1829 7.82058 7.00234C7.8975 6.82179 7.99897 6.65477 8.125 6.5013H6.47292L6.87917 7.58464ZM10.2917 9.7513C10.7521 9.7513 11.1381 9.59332 11.4498 9.27734C11.7614 8.96137 11.917 8.57769 11.9167 8.1263C11.9167 7.66589 11.761 7.28004 11.4498 6.96876C11.1385 6.65748 10.7524 6.50166 10.2917 6.5013H10.2375L10.5896 7.43568C10.6438 7.58012 10.6392 7.71789 10.576 7.84897C10.5128 7.98005 10.409 8.0725 10.2646 8.1263C10.1201 8.18011 9.98021 8.17559 9.84479 8.11276C9.70938 8.04993 9.61458 7.94611 9.56042 7.8013L9.23542 6.88047C9.05486 7.03394 8.91493 7.2145 8.81563 7.42214C8.71632 7.62977 8.66667 7.8645 8.66667 8.1263C8.66667 8.57769 8.82249 8.96137 9.13413 9.27734C9.44576 9.59332 9.83161 9.7513 10.2917 9.7513Z" fill="#9699A4"/>
</g>
<defs>
<clipPath id="clip0_1039_12337">
<rect width="13" height="13" fill="white"/>
</clipPath>
</defs>
</svg>
