<svg width="13" height="13" viewBox="0 0 13 13" fill="none" xmlns="http://www.w3.org/2000/svg">
<path d="M3.2513 11.3737C3.09783 11.3737 2.96927 11.3217 2.86564 11.2177C2.762 11.1137 2.71 10.9851 2.70964 10.832V9.72161C2.54714 9.54106 2.41623 9.34028 2.31693 9.11928C2.21762 8.89828 2.16797 8.6567 2.16797 8.39453V3.2487C2.16797 2.49939 2.51554 1.95105 3.21068 1.60366C3.90582 1.25627 5.00269 1.08239 6.5013 1.08203C8.05408 1.08203 9.1645 1.24905 9.83255 1.58307C10.5006 1.9171 10.8346 2.47231 10.8346 3.2487V8.39453C10.8346 8.65634 10.785 8.89792 10.6857 9.11928C10.5864 9.34064 10.4555 9.54142 10.293 9.72161V10.832C10.293 10.9855 10.241 11.1142 10.137 11.2182C10.033 11.3222 9.90441 11.3741 9.7513 11.3737H9.20963C9.05616 11.3737 8.92761 11.3217 8.82397 11.2177C8.72033 11.1137 8.66833 10.9851 8.66797 10.832V10.2904H4.33464V10.832C4.33464 10.9855 4.28264 11.1142 4.17864 11.2182C4.07464 11.3222 3.94608 11.3741 3.79297 11.3737H3.2513ZM6.52839 2.70703H9.56172H3.49505H6.52839ZM8.66797 6.4987H3.2513H9.7513H8.66797ZM3.2513 5.41536H9.7513V3.79036H3.2513V5.41536ZM4.60547 8.66536C4.83116 8.66536 5.02309 8.58646 5.18126 8.42866C5.33943 8.27085 5.41833 8.07892 5.41797 7.85286C5.41761 7.62681 5.3387 7.43506 5.18126 7.27761C5.02382 7.12017 4.83189 7.04109 4.60547 7.04036C4.37905 7.03964 4.1873 7.11873 4.03022 7.27761C3.87314 7.4365 3.79405 7.62825 3.79297 7.85286C3.79189 8.07748 3.87097 8.26941 4.03022 8.42866C4.18947 8.58791 4.38122 8.66681 4.60547 8.66536ZM8.39713 8.66536C8.62283 8.66536 8.81476 8.58646 8.97293 8.42866C9.13109 8.27085 9.21 8.07892 9.20963 7.85286C9.20927 7.62681 9.13037 7.43506 8.97293 7.27761C8.81548 7.12017 8.62355 7.04109 8.39713 7.04036C8.17072 7.03964 7.97897 7.11873 7.82188 7.27761C7.6648 7.4365 7.58572 7.62825 7.58463 7.85286C7.58355 8.07748 7.66263 8.26941 7.82188 8.42866C7.98113 8.58791 8.17288 8.66681 8.39713 8.66536ZM3.49505 2.70703H9.56172C9.4263 2.55356 9.13525 2.425 8.68855 2.32136C8.24186 2.21773 7.5218 2.16573 6.52839 2.16536C5.56241 2.16536 4.85608 2.22188 4.40938 2.33491C3.96269 2.44793 3.65791 2.57198 3.49505 2.70703ZM4.33464 9.20703H8.66797C8.96589 9.20703 9.22101 9.10105 9.43334 8.88907C9.64568 8.6771 9.75166 8.42198 9.7513 8.1237V6.4987H3.2513V8.1237C3.2513 8.42161 3.35747 8.67674 3.5698 8.88907C3.78214 9.10141 4.03708 9.20739 4.33464 9.20703Z" fill="#9699A4"/>
</svg>
