<svg width="13" height="13" viewBox="0 0 13 13" fill="none" xmlns="http://www.w3.org/2000/svg">
<path fill-rule="evenodd" clip-rule="evenodd" d="M11.3763 9.7487C11.52 9.7487 11.6577 9.80577 11.7593 9.90735C11.8609 10.0089 11.918 10.1467 11.918 10.2904C11.918 10.434 11.8609 10.5718 11.7593 10.6734C11.6577 10.775 11.52 10.832 11.3763 10.832H1.08464C0.94098 10.832 0.803205 10.775 0.701623 10.6734C0.60004 10.5718 0.542972 10.434 0.542972 10.2904C0.542972 10.1467 0.60004 10.0089 0.701623 9.90735C0.803205 9.80577 0.94098 9.7487 1.08464 9.7487H11.3763ZM6.50131 2.70703C8.24764 2.70703 9.71989 3.28932 10.7631 4.10941C11.7874 4.91432 12.4596 6.00307 12.4596 7.04036C12.4596 7.49645 12.3199 7.88536 12.0734 8.19953C11.8335 8.50611 11.5133 8.71411 11.1873 8.85711C10.5448 9.1377 9.78056 9.20703 9.20964 9.20703H1.62306C1.48096 9.20696 1.34028 9.17887 1.20906 9.12436C1.07784 9.06985 0.958653 8.99 0.858329 8.88937C0.758006 8.78875 0.678513 8.66933 0.6244 8.53794C0.570286 8.40656 0.542616 8.26579 0.542972 8.1237V3.79036C0.542972 3.19399 1.02506 2.70703 1.62522 2.70703H6.50131ZM11.2772 6.4987H1.62631V8.1237H9.20964C9.72206 8.1237 10.3119 8.05761 10.7534 7.86424C10.9684 7.76999 11.1223 7.65678 11.2208 7.53111C11.3129 7.41411 11.3763 7.26136 11.3763 7.04036C11.3763 6.87461 11.3438 6.69153 11.2772 6.4987ZM3.79297 3.79036H1.62631V5.41536H3.79297V3.79036ZM6.50131 3.79036H4.87631V5.41536H7.04297V3.81203C6.86603 3.79759 6.68547 3.79036 6.50131 3.79036ZM8.12631 3.99782V5.41536H10.5914C10.4376 5.25118 10.2711 5.09924 10.0936 4.96091C9.57256 4.55141 8.90739 4.20528 8.12631 3.99782Z" fill="#A1A7C4"/>
</svg>
